<svg xmlns="http://www.w3.org/2000/svg" xml:space="preserve" width="192" height="192" data-version="2">
    <rect width="161.033" height="174.02" x="-80.516" y="-87.01" fill="none" rx="0" ry="0" transform="translate(96.5 96.1)"/>
    <path fill="#f00b51" d="M95.88 145.83q-10.16 0-20.32-5.55-3.39-1.69-4.62-1.69-2.31 0-2.47 3.23l-.15 2.16h-2.93v-25.72h2.77q1.39 11.86 8.86 17.48 7.47 5.62 17.71 5.62 10.24 0 15.55-5.54 5.32-5.55 5.32-13.09 0-12.01-13.86-18.17l-18.33-8.17q-8.32-3.69-12.47-10.08-4.16-6.39-4.16-13.79 0-11.24 7.54-19.32 7.55-8.09 21.72-8.09 8.31 0 17.09 5.55 2.93 1.69 4.01 1.69 2 0 2.15-3.23l.16-3.08h2.92v26.64h-2.77q-1.23-11.86-7.62-17.48-6.39-5.62-15.56-5.62-9.16 0-14.16 5-5.01 5.01-5.01 11.4 0 6.39 3.47 11.47 3.46 5.08 10.24 8.01l18.48 8.16q9.24 4.16 13.93 10.86 4.7 6.7 4.7 14.4 0 10.93-8.78 18.94-8.78 8.01-23.41 8.01" paint-order="stroke"/>
</svg>
