<svg xmlns="http://www.w3.org/2000/svg" version="1.1" xmlns:xlink="http://www.w3.org/1999/xlink" width="2000" height="1500" viewBox="0 0 2000 1500"><rect width="2000" height="1500" x="0" y="0" id="background" stroke="transparent" fill="#000000"></rect><svg xml:space="preserve" width="1500" height="1125" data-version="2" data-id="lg_IzhHYPYhwlqYapurZq" viewBox="0 0 576 559" x="250" y="187.5"><rect width="100%" height="100%" fill="transparent"></rect><rect width="576" height="559.35" x="-288" y="-279.675" fill="none" rx="0" ry="0" transform="translate(288.5 280.17)"></rect><path fill="#f00b51" d="M136.64 441.1q-32.67 0-65.34-17.82-10.89-5.44-14.85-5.44-7.42 0-7.92 10.39l-.49 6.93h-9.41V352.5h8.91q4.46 38.11 28.47 56.18 24 18.07 56.92 18.07t50-17.82Q200 391.11 200 366.85q0-38.61-44.55-58.41l-58.9-26.23q-26.73-11.88-40.1-32.42-13.36-20.55-13.36-44.31 0-36.13 24.25-62.12 24.26-25.99 69.8-25.99 26.73 0 54.94 17.82 9.41 5.45 12.87 5.45 6.44 0 6.93-10.4l.5-9.9h9.4v85.64h-8.91q-3.96-38.12-24.5-56.18-20.54-18.07-49.99-18.07-29.46 0-45.54 16.09-16.09 16.08-16.09 36.63 0 20.54 11.14 36.87 11.13 16.34 32.91 25.74l59.4 26.24q29.7 13.36 44.8 34.9 15.1 21.53 15.1 46.28 0 35.14-28.22 60.88-28.21 25.74-75.24 25.74M300.5 132.22h-23.27v-8.91h125.73q62.87 0 102.47 41.58t39.6 114.35q0 72.76-39.6 114.34t-102.47 41.58H277.23v-8.91h23.27q6.93 0 6.93-5.94V138.16q0-5.94-6.93-5.94m102.46 4.95h-54.94V421.3h54.94q42.57 0 71.28-38.11 28.71-38.12 28.71-103.95 0-65.84-28.71-103.95-28.71-38.12-71.28-38.12"></path></svg></svg>